<svg id="Calque_1" data-name="Calque 1" xmlns="http://www.w3.org/2000/svg" viewBox="0 0 700 129.35"><title>Plan de travail 1</title><path d="M127.34,9.71h32.09a27.31,27.31,0,0,1-2.3,16q-8.1,17-16.66,33.73c-8.13,15.87-16.49,31.61-24.64,47.47a7.63,7.63,0,0,0-.25,4.32c.48,3.18,1.23,6.32,2,9.94L75.24,126a5.79,5.79,0,0,1-.29-1.38c.4-7.75-2.31-14.52-6.56-20.77Q44.74,69.1,21,34.38A22.1,22.1,0,0,0,6.57,24.9,2.67,2.67,0,0,1,5,23c-.46-4.5-.4-4.52,3.94-5.92l37-12c20.71,27.74,38.78,57,57.41,86.53.6-1.08,1-1.82,1.42-2.6,5.92-12.11,12.32-24,17.6-36.41C126.23,43.6,129,34,129.07,24c0-3.66-.87-7.32-1.33-11C127.61,12,127.5,11,127.34,9.71Z"/><path d="M532.13,96.42c-14.75,5.41-28.37,4.58-40.3-6.87-4.19-4-8.8-7.64-13.32-11.31-.79-.64-2.37-1.18-3.07-.8s-1.21,1.93-1.24,3c-.13,4.63,0,9.26-.12,13.89,0,.78-.73,2.15-1.25,2.22-7.42.93-14.85,1.69-22.41,2.5C448.89,73.2,452.71,47.36,447,21.8c-1.8-.11-3.88.29-5.26-.51-1-.6-1.16-2.76-1.79-4.51l19.88-3.95a15.57,15.57,0,0,0,3.52-.66c3.31-1.54,4.62.38,5.89,2.93,2.92,5.86,3.68,12.18,4,18.55.46,9.43.63,18.87.92,28.3,0,.91,0,1.82,0,3.44,1.8-1.5,3.15-2.54,4.4-3.68,9-8.21,17.4-16.91,21.06-29a2.1,2.1,0,0,1,1.58-1.14c7.68-.07,15.36-.05,23.94-.05C515,45,502.33,54.81,490,65.18c8.64,3.77,15.08,10,21.82,15.9,3.48,3,7.06,5.94,10.81,8.61a18,18,0,0,0,5.85,2.41C531.79,93,531.82,92.85,532.13,96.42Z"/><path d="M554.35,59.58c5.21,0,10.29,0,15.37,0,6.11.07,12.25.66,18.33.24,5.81-.4,11.55-1.81,17.83-2.87l2.75,4.11c-17,9.26-35.42,7.58-54.26,7.88,1.1,2.51,1.65,4.84,3,6.58a39,39,0,0,0,28.19,15.69,10.22,10.22,0,0,0,10.1-5.11c2.22-3.56,3.95-7.43,6-11.37l15.88,4c-1.95,6.18-5,11.46-10.94,13.94a85.48,85.48,0,0,1-15.63,4.47,83.29,83.29,0,0,1-16.46,2.12,69,69,0,0,1-15.83-2.14c-8.32-2-15.81-5.78-21.57-12.34-11.34-12.92-9-31.1,5.12-40.84,7.81-5.37,16.69-8.18,25.71-10.62a113,113,0,0,1,11.31-2.67c7-1.14,13.85.41,20.35,2.9,5.48,2.1,10.67,4.94,16.5,7.7a16.69,16.69,0,0,1-1.64,1.37c-4.49,2.57-9,5.08-13.48,7.71a2.7,2.7,0,0,1-3.44-.17,80.12,80.12,0,0,0-21.89-10.47c-5.28-1.69-9.71-.42-13.49,3.28C557.59,47.43,554.49,52.65,554.35,59.58Z"/><path d="M624.78,79.54l26.39-1.42c-.48,1.64-.89,3-1.29,4.39-1.46,5.13.81,9.3,5.88,10.81,5.93,1.76,12.67-1,14.89-6.06,1.57-3.6,1.14-6.3-2.31-8.05-5.23-2.65-10.77-4.72-16.22-6.93-5.13-2.07-10.33-4-15.46-6A34.58,34.58,0,0,1,632,63.77c-7.85-4.67-8.44-10.17-3.49-18,3.21-5,8.29-8.08,13.75-9.88a189.19,189.19,0,0,1,21.65-5.51c2.38-.48,5.16.29,7.59,1a95.12,95.12,0,0,1,10.81,4.23c3.78,1.7,7.43,3.68,11.51,5.73-2.91,3.31-5.63,6.4-8.35,9.48-.8.9-1.63,1.77-2.45,2.66C680,56.94,680,56.89,675.95,55a3.08,3.08,0,0,1-2.12-3.27,6,6,0,0,0-2.16-4.32,41.84,41.84,0,0,0-20-7.56c-4.74-.45-6.75,1.06-8.27,5.12-1,2.61-.25,4.49,2,5.55,4,1.87,8.09,3.59,12.25,5.06,8.16,2.9,16.46,5.43,24.58,8.43a35.56,35.56,0,0,1,8.43,4.73c5.71,4.16,6.7,9.24,3.34,15.54-3,5.62-8,9-13.71,11.14a66.26,66.26,0,0,1-45.6.79C626.26,93.33,624.1,89.31,624.78,79.54Z"/><path d="M433.18,41.16,419,56.94a36.82,36.82,0,0,0-3.86-1.87c-2-.68-2.67-1.75-2.39-3.93a4.19,4.19,0,0,0-1.48-3.28,40.31,40.31,0,0,0-21.48-8c-2.49-.14-5.19.19-6.58,3.1-2.14,4.47-1.87,6.53,2.71,8.4,7.07,2.88,14.46,5,21.62,7.65,6.55,2.45,13.28,4.67,19.39,8,10.1,5.5,10.6,15.15,1.78,22.71-6.33,5.43-13.88,8-21.95,9.15-10.16,1.4-20.29,1.22-30.26-1.58a31.24,31.24,0,0,1-3.4-1.18c-8-3.28-9.91-6.61-9.26-16.53L390,78.13c-.3,1.34-.48,2.4-.79,3.42-2.08,6.82.76,11.28,7.77,12.21,5.27.7,10.61-2,12.54-6.3,1.76-3.94,1.27-6.34-2.46-8.45a85.34,85.34,0,0,0-11-5c-6.1-2.37-12.32-4.42-18.43-6.77A48.3,48.3,0,0,1,371.41,64c-8.8-4.93-9.16-11.28-2.85-19.53,3.71-4.85,9.12-7.61,14.79-9.39a127.09,127.09,0,0,1,18.24-4.38,20.08,20.08,0,0,1,9.74,1.08C418.56,34.49,425.56,37.84,433.18,41.16Z"/><path d="M284.44,96.93l-24.6,2.79c.68-7.87-4-13.22-7.88-18.92-7.49-11-15-22-22.47-33.06-2.44-3.61-5.44-6.28-10-6.83-.76-2.44-.43-3.91,2.37-4.73,7.07-2.06,14-4.44,21.65-6.88l33.09,50.2c2.64-5.38,5.13-10.7,7.85-15.91a58,58,0,0,0,6.63-20.41c.39-3.5-.23-7.12-.4-10.82h18.36c.67,3.73-.37,7.1-1.92,10.22C302,53,296.66,63.37,291.37,73.72c-2.27,4.44-4.57,8.88-7,13.24-1,1.79-1.48,3.42-.68,5.46A21.85,21.85,0,0,1,284.44,96.93Z"/><path d="M210.38,29.87V95.49L186,99.16c0-6.82,0-13.27,0-19.73,0-12.67-.12-25.34-.16-38a4.28,4.28,0,0,0-2.52-4.18c-1.33-.72-2.27-2.16-3.95-3.85Z"/><path d="M347.51,95.51l-24.2,3.64c0-7.43,0-14.53,0-21.64q0-17.62-.1-35.24c0-2.3-.49-4.24-3.05-5.3-1.16-.48-1.9-2-3.3-3.61l30.65-3.51Z"/></svg>